<?xml version="1.0" encoding="UTF-8" standalone="no"?>
<!-- Created with Inkscape (http://www.inkscape.org/) -->

<svg
   xmlns:dc="http://purl.org/dc/elements/1.1/"
   xmlns:cc="http://creativecommons.org/ns#"
   xmlns:rdf="http://www.w3.org/1999/02/22-rdf-syntax-ns#"
   xmlns:svg="http://www.w3.org/2000/svg"
   xmlns="http://www.w3.org/2000/svg"
   xmlns:sodipodi="http://sodipodi.sourceforge.net/DTD/sodipodi-0.dtd"
   xmlns:inkscape="http://www.inkscape.org/namespaces/inkscape"
   width="26.0611mm"
   height="70.55555mm"
   viewBox="0 0 92.342482 249.99997"
   id="svg2"
   version="1.1"
   inkscape:version="0.91 r13725"
   sodipodi:docname="database.svg">
  <defs
     id="defs4" />
  <sodipodi:namedview
     id="base"
     pagecolor="#ffffff"
     bordercolor="#666666"
     borderopacity="1.0"
     inkscape:pageopacity="0.0"
     inkscape:pageshadow="2"
     inkscape:zoom="0.35"
     inkscape:cx="-553.19647"
     inkscape:cy="417.14283"
     inkscape:document-units="px"
     inkscape:current-layer="layer1"
     showgrid="false"
     fit-margin-top="0"
     fit-margin-left="0"
     fit-margin-right="0"
     fit-margin-bottom="0"
     inkscape:window-width="1366"
     inkscape:window-height="746"
     inkscape:window-x="0"
     inkscape:window-y="0"
     inkscape:window-maximized="1" />
  <metadata
     id="metadata7">
    <rdf:RDF>
      <cc:Work
         rdf:about="">
        <dc:format>image/svg+xml</dc:format>
        <dc:type
           rdf:resource="http://purl.org/dc/dcmitype/StillImage" />
        <dc:title></dc:title>
      </cc:Work>
    </rdf:RDF>
  </metadata>
  <g
     inkscape:label="Layer 1"
     inkscape:groupmode="layer"
     id="layer1"
     transform="translate(-79.625049,-230.21936)">
    <path
       style="fill:#000000"
       d="m 104.46429,467.82922 0,-12.39012 -4.902576,-0.82829 c -6.99556,-1.1819 -15.51368,-6.98475 -18.02664,-12.28041 -1.94234,-4.0932 -2.09505,-11.42523 -1.78493,-85.70265 0.33254,-79.64564 0.38904,-81.29518 2.90298,-84.75496 3.9658,-5.45786 14.73804,-10.40344 22.660306,-10.40344 l 6.65086,0 0,-8.125 c 0,-7.83333 0.11218,-8.125 3.125,-8.125 2.98611,0 3.125,-0.33333 3.125,-7.5 l 0,-7.5 7.5,0 7.5,0 0,7.5 c 0,7.16667 0.13888,7.5 3.125,7.5 3.00697,0 3.125,0.30137 3.125,7.97938 l 0,7.97938 7.99272,0.50894 c 6.09325,0.38799 9.4352,1.39489 14.0625,4.23691 11.04076,6.78107 10.44063,1.48062 10.44284,92.23148 0.003,90.1434 0.47029,85.69377 -9.69293,92.13908 -3.025,1.9184 -7.70615,3.86073 -10.40257,4.31629 l -4.90256,0.82829 0,12.39012 c 0,12.38281 -0.001,12.39013 -3.125,12.39013 -3.125,0 -3.125,0 -3.125,-12.5 0,-10.27777 -0.33334,-12.5 -1.875,-12.5 -1.54167,0 -1.875,2.22223 -1.875,12.5 0,12.5 0,12.5 -3.125,12.5 -3.125,0 -3.125,0 -3.125,-12.5 l 0,-12.5 -5,0 -5,0 0,12.5 c 0,12.5 0,12.5 -3.125,12.5 -3.125,0 -3.125,0 -3.125,-12.5 0,-10.27777 -0.33334,-12.5 -1.875,-12.5 -1.54167,0 -1.875,2.22223 -1.875,12.5 0,12.5 0,12.5 -3.125,12.5 -3.12316,0 -3.125,-0.007 -3.125,-12.39013 z m 1.25602,-34.79737 c 0.003,-0.51563 -1.47829,-5.01563 -3.29244,-10 -2.487326,-6.83393 -3.872066,-9.0625 -5.631016,-9.0625 -1.49924,0 -2.33257,-0.89315 -2.33257,-2.5 0,-2.43334 0.83333,-2.5 31.250006,-2.5 30.04137,0 31.25,0.0934 31.25,2.41306 0,1.50167 -1.00318,2.56393 -2.65605,2.8125 -2.074,0.3119 -3.40373,2.52235 -6.06797,10.08694 l -3.41192,9.6875 10.44297,0 10.44297,0 0,-65.625 0,-65.625 -10.44297,0 -10.44297,0 3.41192,9.6875 c 2.70568,7.68225 3.97683,9.77216 6.14104,10.09651 1.76928,0.26517 2.58749,1.14443 2.32643,2.5 -0.36335,1.88672 -3.39112,2.09099 -30.99345,2.09099 -28.140246,0 -30.624516,-0.17523 -31.012046,-2.1875 -0.28428,-1.47619 0.36702,-2.1875 2.00295,-2.1875 1.87274,0 3.17458,-2.06162 5.722676,-9.0625 1.81415,-4.98438 3.29575,-9.48438 3.29244,-10 -0.003,-0.51563 -4.50602,-0.9375 -10.006026,-0.9375 l -10,0 0,65.625 0,65.625 10,0 c 5.500006,0 10.002716,-0.42188 10.006026,-0.9375 z m -11.256026,-64.6875 0,-34.375 31.250006,0 31.25,0 0,34.375 0,34.375 -31.25,0 -31.250006,0 0,-34.375 z m 12.500006,12.5 c 0,-4.79166 -0.37037,-5.625 -2.5,-5.625 -2.06522,0 -2.5,0.83334 -2.5,4.79166 0,5.12445 0.68845,6.45834 3.33333,6.45834 1.14197,0 1.66667,-1.77084 1.66667,-5.625 z m 13.75,0 c 0,-4.16666 -0.48612,-5.625 -1.875,-5.625 -1.38889,0 -1.875,1.45834 -1.875,5.625 0,4.16666 0.48611,5.625 1.875,5.625 1.38888,0 1.875,-1.45834 1.875,-5.625 z m 13.75,0 c 0,-4.16666 -0.48612,-5.625 -1.875,-5.625 -1.38889,0 -1.875,1.45834 -1.875,5.625 0,4.16666 0.48611,5.625 1.875,5.625 1.38888,0 1.875,-1.45834 1.875,-5.625 z m 14.75937,-0.32329 c 0.33656,-4.64231 0.0645,-5.30171 -2.1875,-5.30171 -2.22092,0 -2.57187,0.78009 -2.57187,5.71665 0,4.76917 0.36256,5.64789 2.1875,5.30172 1.5957,-0.30268 2.29148,-1.84926 2.57187,-5.71666 z M 106.96429,355.7527 c 0,-4.76918 -0.36256,-5.64789 -2.1875,-5.30172 -1.5957,0.30268 -2.29149,1.84926 -2.57188,5.71666 -0.33656,4.64231 -0.0645,5.30171 2.1875,5.30171 2.22092,0 2.57188,-0.78009 2.57188,-5.71665 z m 13.75,0.0917 c 0,-4.16667 -0.48612,-5.625 -1.875,-5.625 -1.38889,0 -1.875,1.45833 -1.875,5.625 0,4.16666 0.48611,5.625 1.875,5.625 1.38888,0 1.875,-1.45834 1.875,-5.625 z m 13.75,0 c 0,-4.16667 -0.48612,-5.625 -1.875,-5.625 -1.38889,0 -1.875,1.45833 -1.875,5.625 0,4.16666 0.48611,5.625 1.875,5.625 1.38888,0 1.875,-1.45834 1.875,-5.625 z m 14.75937,0.32329 c -0.28039,-3.8674 -0.97617,-5.41398 -2.57187,-5.71666 -1.82494,-0.34617 -2.1875,0.53254 -2.1875,5.30172 0,4.93656 0.35095,5.71665 2.57187,5.71665 2.25199,0 2.52406,-0.6594 2.1875,-5.30171 z m -26.00937,67.80171 0,-10 -7.63551,0 -7.63551,0 0.83983,3.4375 c 0.4619,1.89062 1.6878,6.39062 2.7242,10 1.86168,6.48343 1.94356,6.5625 6.79568,6.5625 l 4.91131,0 0,-10 z m 16.70698,3.4375 c 1.0364,-3.60938 2.2623,-8.10938 2.7242,-10 l 0.83984,-3.4375 -7.63551,0 -7.63551,0 0,10 0,10 4.9113,0 c 4.85212,0 4.93401,-0.0791 6.79568,-6.5625 z m 2.7242,-108.125 c -0.4619,-1.89063 -1.6878,-6.39063 -2.7242,-10 l -1.88438,-6.5625 -12.3226,0 -12.32261,0 -1.88438,6.5625 c -1.0364,3.60937 -2.2623,8.10937 -2.7242,10 l -0.83983,3.4375 17.77102,0 17.77102,0 -0.83984,-3.4375 z"
       id="path3334"
       inkscape:connector-curvature="0" />
  </g>
</svg>
