<?xml version="1.0" encoding="UTF-8" standalone="no"?>
<!-- Created with Inkscape (http://www.inkscape.org/) -->

<svg
   xmlns:dc="http://purl.org/dc/elements/1.1/"
   xmlns:cc="http://creativecommons.org/ns#"
   xmlns:rdf="http://www.w3.org/1999/02/22-rdf-syntax-ns#"
   xmlns:svg="http://www.w3.org/2000/svg"
   xmlns="http://www.w3.org/2000/svg"
   xmlns:sodipodi="http://sodipodi.sourceforge.net/DTD/sodipodi-0.dtd"
   xmlns:inkscape="http://www.inkscape.org/namespaces/inkscape"
   id="svg2"
   version="1.1"
   inkscape:version="0.91 r13725"
   width="511.39014"
   height="511.306"
   viewBox="0 0 511.39014 511.306"
   sodipodi:docname="images.svg">
  <metadata
     id="metadata8">
    <rdf:RDF>
      <cc:Work
         rdf:about="">
        <dc:format>image/svg+xml</dc:format>
        <dc:type
           rdf:resource="http://purl.org/dc/dcmitype/StillImage" />
        <dc:title></dc:title>
      </cc:Work>
    </rdf:RDF>
  </metadata>
  <defs
     id="defs6" />
  <sodipodi:namedview
     pagecolor="#ffffff"
     bordercolor="#666666"
     borderopacity="1"
     objecttolerance="10"
     gridtolerance="10"
     guidetolerance="10"
     inkscape:pageopacity="0"
     inkscape:pageshadow="2"
     inkscape:window-width="996"
     inkscape:window-height="607"
     id="namedview4"
     showgrid="false"
     fit-margin-top="0"
     fit-margin-left="0"
     fit-margin-right="0"
     fit-margin-bottom="0"
     inkscape:zoom="0.4609375"
     inkscape:cx="-106.41493"
     inkscape:cy="516.14499"
     inkscape:window-x="226"
     inkscape:window-y="134"
     inkscape:window-maximized="0"
     inkscape:current-layer="svg2" />
  <path
     style="fill:#000000"
     d="M 22.189987,509.64233 C 15.011607,507.15585 9.4595671,503.07512 5.8587871,497.63894 -0.56270286,487.94425 -0.15222286,505.44487 0.13164714,253.46483 L 0.39014714,24 3.0099671,18.413518 C 6.3400271,11.312521 11.702677,5.9498716 18.803667,2.6198152 L 24.390147,0 255.89015,0 l 231.5,0 5.58648,2.6198152 c 7.101,3.3300564 12.46365,8.6927058 15.7937,15.7937028 L 511.39015,24 l 0,231.5 0,231.5 -2.61982,5.58648 c -3.33005,7.101 -8.6927,12.46365 -15.7937,15.7937 L 487.39015,511 l -230,0.22179 C 38.115297,511.43324 27.147667,511.35959 22.189987,509.64233 Z M 234.3786,347.65284 C 345.83335,236.38129 338.06723,243.25899 352.39015,243.14129 c 13.28663,-0.10918 13.87675,0.34065 57.25,43.63943 l 38.25,38.18434 0,-130.73253 0,-130.73253 -192,0 -192.000003,0 0,192 0,192 35.23845,0 35.238453,0 100.01155,-99.84716 z m -55.98845,-93.73438 c -24.64979,-5.46736 -43.80409,-24.91718 -48.91736,-49.67208 -1.99702,-9.66823 -1.99702,-15.82453 0,-25.49276 5.18893,-25.1212 24.62452,-44.57849 49.6252,-49.68061 9.72464,-1.9846 15.85968,-1.9846 25.58432,0 25.33185,5.16971 44.54513,24.65121 49.77709,50.472 3.93071,19.39883 -2.12224,40.38563 -16.11497,55.87392 -13.6519,15.11102 -39.40495,23.0574 -59.95428,18.49953 z m 269.5,177.33545 0,-16.2461 -47.24605,-47.2539 C 374.65877,341.76426 352.94494,320.5 352.39114,320.5 c -0.55379,0 -29.57924,28.575 -64.50099,63.5 l -63.49409,63.5 111.74704,0 111.74705,0 0,-16.24609 z"
     id="path3338"
     inkscape:connector-curvature="0" />
</svg>
