<?xml version="1.0" encoding="UTF-8" standalone="no"?>
<!-- Created with Inkscape (http://www.inkscape.org/) -->

<svg
   xmlns:dc="http://purl.org/dc/elements/1.1/"
   xmlns:cc="http://creativecommons.org/ns#"
   xmlns:rdf="http://www.w3.org/1999/02/22-rdf-syntax-ns#"
   xmlns:svg="http://www.w3.org/2000/svg"
   xmlns="http://www.w3.org/2000/svg"
   xmlns:sodipodi="http://sodipodi.sourceforge.net/DTD/sodipodi-0.dtd"
   xmlns:inkscape="http://www.inkscape.org/namespaces/inkscape"
   width="68.641975mm"
   height="63.768631mm"
   viewBox="0 0 243.21959 225.95184"
   id="svg2"
   version="1.1"
   inkscape:version="0.91 r13725"
   sodipodi:docname="logs.svg">
  <defs
     id="defs4" />
  <sodipodi:namedview
     id="base"
     pagecolor="#ffffff"
     bordercolor="#666666"
     borderopacity="1.0"
     inkscape:pageopacity="0.0"
     inkscape:pageshadow="2"
     inkscape:zoom="0.35"
     inkscape:cx="-257.14285"
     inkscape:cy="651.88056"
     inkscape:document-units="px"
     inkscape:current-layer="layer1"
     showgrid="false"
     fit-margin-top="0"
     fit-margin-left="0"
     fit-margin-right="0"
     fit-margin-bottom="0"
     inkscape:window-width="1366"
     inkscape:window-height="746"
     inkscape:window-x="0"
     inkscape:window-y="0"
     inkscape:window-maximized="1" />
  <metadata
     id="metadata7">
    <rdf:RDF>
      <cc:Work
         rdf:about="">
        <dc:format>image/svg+xml</dc:format>
        <dc:type
           rdf:resource="http://purl.org/dc/dcmitype/StillImage" />
        <dc:title></dc:title>
      </cc:Work>
    </rdf:RDF>
  </metadata>
  <g
     inkscape:label="Layer 1"
     inkscape:groupmode="layer"
     id="layer1"
     transform="translate(-637.85714,-1190.9659)">
    <g
       id="g4946">
      <path
         inkscape:connector-curvature="0"
         id="path4938"
         d="m 663.4856,1410.5051 c -16.51562,-8.3435 -25.62846,-22.0052 -25.62846,-38.4216 0,-16.4512 4.53752,-24.4701 25.49753,-45.0604 15.35149,-15.0808 17.35961,-18.3408 17.35961,-28.1824 0,-15.3237 8.88481,-29.3473 29.26595,-46.1928 74.34362,-61.4468 79.771,-64.7996 97.63792,-60.3153 17.27738,4.3364 32.99396,27.5211 29.11983,42.9569 -1.52413,6.0726 -0.56681,6.7473 11.50447,8.1079 19.26517,2.1714 30.16532,13.8857 31.68743,34.0541 l 1.14687,15.1964 -34.75505,42.8572 c -56.80572,70.0482 -61.68477,75.2071 -74.3543,78.6187 -15.05957,4.0551 -29.48456,-0.069 -41.72039,-11.9288 l -9.51457,-9.2219 -8.86504,9.0674 c -7.66552,7.8405 -23.01349,14.8252 -32.69057,14.8772 -1.63132,0.01 -8.69237,-2.8769 -15.69123,-6.4126 z m 39.67589,-12.2364 c 11.59999,-9.7607 16.15944,-23.9568 11.86937,-36.9559 -8.00139,-24.2444 -38.88391,-32.982 -57.56806,-16.2877 -7.66002,6.8442 -9.26213,10.578 -10.39367,24.2228 -1.27749,15.4049 -0.88456,16.5846 8.72514,26.1943 8.8414,8.8414 11.805,10.0629 24.41508,10.0629 11.19004,0 16.24701,-1.5944 22.95214,-7.2364 z m 80,0 c 17.78215,-14.9627 17.78215,-39.136 0,-54.0987 -6.70513,-5.642 -11.7621,-7.2364 -22.95214,-7.2364 -12.5126,0 -15.59735,1.2452 -24.0665,9.7143 -8.55677,8.5568 -9.71428,11.4846 -9.71428,24.5714 0,13.0869 1.15751,16.0147 9.71428,24.5715 8.46915,8.4691 11.5539,9.7143 24.0665,9.7143 11.19004,0 16.24701,-1.5944 22.95214,-7.2364 z m 57.24168,-69.1155 c 28.1414,-34.7639 31.73968,-40.4572 31.73968,-50.2197 0,-15.9294 -12.2641,-27.7142 -28.84141,-27.7142 -10.55569,0 -13.6573,1.5866 -23.79121,12.1698 -16.72519,17.4668 -54.05128,62.1452 -52.75207,63.1429 0.60444,0.4642 5.1846,2.4691 10.17814,4.4553 4.99354,1.9862 11.29995,6.0653 14.01425,9.0645 2.7143,2.9993 5.81127,5.4533 6.88216,5.4533 1.07089,0 9.55019,-8.975 18.84289,-19.9444 15.40383,-18.1831 24.03868,-24.4164 24.03868,-17.3527 0,1.4866 -8.35714,12.2472 -18.57143,23.9123 -12.77592,14.5907 -18.57142,23.555 -18.57142,28.7256 0,4.134 1.14571,7.5163 2.54603,7.5163 1.40032,0 16.82889,-17.644 34.28571,-39.209 z m -116.83174,16.3519 c 0,-1.5715 -1.28572,-2.8572 -2.85715,-2.8572 -1.57143,0 -2.85714,1.2857 -2.85714,2.8572 0,1.5714 1.28571,2.8571 2.85714,2.8571 1.57143,0 2.85715,-1.2857 2.85715,-2.8571 z m 19.10336,-17.0007 c 11.71316,-7.142 15.65854,-14.7861 15.65854,-30.3381 0,-32.9391 -38.59772,-47.1429 -60.45608,-22.2476 -14.36952,16.3659 -11.01059,40.5162 7.31539,52.5968 10.71649,7.0644 25.88553,7.0599 37.48215,-0.011 l 0,10e-5 z m -55.74832,-6.5014 c -1.57143,-1.5715 -4.39215,-1.9085 -6.26827,-0.749 -2.59165,1.6017 -2.51263,2.6635 0.32892,4.4197 4.87409,3.0123 9.66283,0.053 5.93935,-3.6707 z m 116.30384,-53.5905 c 22.25209,-26.1708 29.63819,-40.4675 23.88097,-46.2247 -1.76525,-1.7653 -9.54964,4.6949 -21.70312,18.0111 -13.79305,15.1127 -19.80677,19.9076 -22.09642,17.6179 -2.28965,-2.2897 2.54925,-9.1412 17.77976,-25.175 l 20.92557,-22.0292 -6.6822,-5.4109 c -7.55908,-6.121 -20.54,-7.0268 -29.80842,-2.0802 -3.43241,1.8319 -18.9478,13.7248 -34.47865,26.4286 l -28.23791,23.0978 9.86718,2.8572 c 20.98963,6.0777 31.14442,17.4832 35.30317,39.6513 2.41599,12.8783 0.006,14.7069 35.25007,-26.7439 z"
         style="fill:#000000" />
      <path
         transform="translate(246.42857,438.07649)"
         inkscape:connector-curvature="0"
         id="path4940"
         d="m 497.7487,950.17487 c -9.69963,-8.1617 -12.06209,-15.78563 -4.89156,-15.78563 2.35715,0 4.28572,1.23563 4.28572,2.74585 0,1.51021 2.71063,5.27117 6.02362,8.3577 9.87769,9.20246 4.98226,13.43313 -5.41778,4.68208 z"
         style="fill:#000000" />
      <path
         transform="translate(246.42857,438.07649)"
         inkscape:connector-curvature="0"
         id="path4942"
         d="m 458.44156,875.94768 c -3.85714,-3.85714 -7.01299,-8.35714 -7.01299,-10 0,-5.0717 7.0029,-3.29762 10.76551,2.72728 1.96275,3.14285 5.48631,5.71428 7.83013,5.71428 2.34383,0 4.26151,1.92857 4.26151,4.28572 0,6.50504 -7.98658,5.1303 -15.84416,-2.72728 z"
         style="fill:#000000" />
      <path
         transform="translate(246.42857,438.07649)"
         inkscape:connector-curvature="0"
         id="path4944"
         d="m 421.42857,953.70472 c -10.78033,-6.01129 -17.32481,-19.51323 -9.28571,-19.15739 4.41368,0.19536 17.24438,16.03189 15.94641,19.68216 -0.55114,1.54997 -3.33302,1.3308 -6.6607,-0.52477 z"
         style="fill:#000000" />
    </g>
  </g>
</svg>
