<?xml version="1.0" encoding="UTF-8" standalone="no"?>
<!-- Created with Inkscape (http://www.inkscape.org/) -->

<svg
   xmlns:dc="http://purl.org/dc/elements/1.1/"
   xmlns:cc="http://creativecommons.org/ns#"
   xmlns:rdf="http://www.w3.org/1999/02/22-rdf-syntax-ns#"
   xmlns:svg="http://www.w3.org/2000/svg"
   xmlns="http://www.w3.org/2000/svg"
   xmlns:sodipodi="http://sodipodi.sourceforge.net/DTD/sodipodi-0.dtd"
   xmlns:inkscape="http://www.inkscape.org/namespaces/inkscape"
   width="24.190477mm"
   height="24.996824mm"
   viewBox="0 0 85.71429 88.571424"
   id="svg2"
   version="1.1"
   inkscape:version="0.91 r13725"
   sodipodi:docname="paint.svg">
  <defs
     id="defs4" />
  <sodipodi:namedview
     id="base"
     pagecolor="#ffffff"
     bordercolor="#666666"
     borderopacity="1.0"
     inkscape:pageopacity="0.0"
     inkscape:pageshadow="2"
     inkscape:zoom="0.98994949"
     inkscape:cx="228.44125"
     inkscape:cy="198.5123"
     inkscape:document-units="px"
     inkscape:current-layer="layer1"
     showgrid="false"
     fit-margin-top="0"
     fit-margin-left="0"
     fit-margin-right="0"
     fit-margin-bottom="0"
     inkscape:window-width="1366"
     inkscape:window-height="746"
     inkscape:window-x="0"
     inkscape:window-y="0"
     inkscape:window-maximized="1" />
  <metadata
     id="metadata7">
    <rdf:RDF>
      <cc:Work
         rdf:about="">
        <dc:format>image/svg+xml</dc:format>
        <dc:type
           rdf:resource="http://purl.org/dc/dcmitype/StillImage" />
        <dc:title />
      </cc:Work>
    </rdf:RDF>
  </metadata>
  <g
     inkscape:label="Layer 1"
     inkscape:groupmode="layer"
     id="layer1"
     transform="translate(-2.2653828,-3.5457022)">
    <path
       style="fill:#69b543"
       d="m 50.252969,90.61706 c 9.99744,-1.431886 18.07782,-5.745197 25.1034,-13.400189 14.08681,-15.348855 15.27647,-39.170951 2.79444,-55.956883 -2.18516,-2.938619 -7.09118,-7.672663 -10.06039,-9.707719 -13.85852,-9.4984481 -32.07696,-9.4986681 -45.93498,-5.53e-4 -2.96991,2.035542 -7.87582,6.769364 -10.06119,9.708272 -3.69341,4.966928 -6.54044,11.489207 -7.89351,18.083333 -0.84618,4.123812 -0.85177,12.663739 -0.0109,16.607142 1.85286,8.689064 5.20435,15.350708 10.75181,21.371007 6.20657,6.735573 13.45119,10.911941 22.12115,12.752359 3.512,0.745511 9.9318,1.009907 13.19015,0.543231 z m -9.87699,-18.79103 c -4.95421,-1.357872 -12.54093,-5.12838 -15.61059,-7.758272 l -1.25,-1.070921 1.28533,-1.339267 1.28534,-1.339266 2.65094,1.858601 c 5.79661,4.064048 13.13578,7.061582 17.57745,7.179157 2.17543,0.05758 2.51648,-0.03045 3.125,-0.806601 0.92376,-1.178229 0.85608,-2.451347 -0.39456,-7.421714 -1.55466,-6.178584 -1.39179,-8.224528 0.76248,-9.578287 2.40007,-1.50822 7.15453,-1.264726 10.88206,0.557313 1.69377,0.827922 2.92121,2.01424 7.54521,7.292459 1.80683,2.062455 3.15735,2.284914 4.63044,0.762721 0.88726,-0.916836 0.91688,-1.083487 0.7379,-4.151785 -0.11436,-1.960455 -0.48581,-4.011112 -0.96055,-5.30286 -2.30574,-6.273813 -9.62098,-14.448995 -15.82478,-17.685055 l -2.05964,-1.074355 0.72618,-1.470875 0.72618,-1.470875 1.86679,0.975628 c 6.35462,3.321065 13.6132,10.6946 17.00615,17.275487 1.77968,3.451816 2.28361,5.72939 2.11895,9.576877 -0.18069,4.222326 -1.06316,6.101568 -3.41848,7.279767 -3.0462,1.52379 -5.36305,0.438764 -9.93014,-4.650476 -4.15451,-4.629499 -6.06676,-5.832701 -9.3442,-5.879438 -1.65241,-0.02358 -2.35983,0.117845 -2.60751,0.521232 -0.60939,0.992487 -0.37095,3.434778 0.7206,7.380952 2.00896,7.262806 1.2727,9.979427 -3.03572,11.201155 -1.3366,0.379016 -6.41976,-0.09631 -9.21083,-0.861302 z m -28.11059,-3.824302 c 0,-1.091186 4.0285,-6.943543 12.10609,-17.586979 7.79689,-10.273581 9.97194,-12.885793 10.93792,-13.136321 1.20139,-0.311578 3.04398,0.865882 3.89559,2.48937 0.60144,1.146573 0.63092,1.461005 0.23065,2.459556 -0.626,1.561684 -19.65963,20.597101 -24.67025,24.672578 -2.09968,1.707809 -2.5,1.884239 -2.5,1.101796 z m 2.84548,-16.421194 c -1.82423,-6.103044 0.18474,-13.599559 4.9695,-18.543812 2.69056,-2.780249 6.53918,-4.982253 10.57326,-6.049544 2.5907,-0.685415 8.34188,-1.479082 8.62181,-1.189815 0.11091,0.114606 -0.27787,0.925848 -0.86395,1.802761 -1.0473,1.566998 -1.12305,1.605742 -4.40943,2.255318 -3.80212,0.751516 -8.22327,2.782519 -10.53832,4.841128 -1.89589,1.68588 -3.89678,4.805045 -4.81581,7.507338 -0.90474,2.660247 -0.99935,6.753531 -0.19927,8.621495 0.56386,1.316467 0.55697,1.353073 -0.54726,2.904634 -1.04796,1.472511 -1.14881,1.528263 -1.60311,0.886264 -0.26663,-0.376802 -0.80097,-1.742898 -1.18742,-3.035767 z m 25.44778,-15.75398 c -0.71727,-0.861665 -0.84075,-1.328108 -0.69801,-2.636659 0.39274,-3.600504 4.00925,-8.584266 7.40475,-10.204148 1.16325,-0.554949 2.34696,-0.770081 4.28571,-0.778896 2.40337,-0.01093 2.97212,0.136292 5.53571,1.432919 l 2.85715,1.445098 -2.25564,0.247917 c -2.91964,0.320897 -3.86442,1.075723 -5.4535,4.357065 -2.76111,5.701478 -4.99688,7.542482 -8.86923,7.303177 -1.60554,-0.09922 -2.08408,-0.298085 -2.80694,-1.166473 z"
       id="path3334"
       inkscape:connector-curvature="0" />
  </g>
</svg>
