<?xml version="1.0" encoding="UTF-8" standalone="no"?>
<!-- Created with Inkscape (http://www.inkscape.org/) -->

<svg
   xmlns:dc="http://purl.org/dc/elements/1.1/"
   xmlns:cc="http://creativecommons.org/ns#"
   xmlns:rdf="http://www.w3.org/1999/02/22-rdf-syntax-ns#"
   xmlns:svg="http://www.w3.org/2000/svg"
   xmlns="http://www.w3.org/2000/svg"
   xmlns:sodipodi="http://sodipodi.sourceforge.net/DTD/sodipodi-0.dtd"
   xmlns:inkscape="http://www.inkscape.org/namespaces/inkscape"
   width="128.97556mm"
   height="131.23334mm"
   viewBox="0 0 457 465.00001"
   id="svg5388"
   version="1.1"
   inkscape:version="0.91 r13725"
   sodipodi:docname="plusmin.svg">
  <defs
     id="defs5390" />
  <sodipodi:namedview
     id="base"
     pagecolor="#ffffff"
     bordercolor="#666666"
     borderopacity="1.0"
     inkscape:pageopacity="0.0"
     inkscape:pageshadow="2"
     inkscape:zoom="0.35"
     inkscape:cx="-476.5"
     inkscape:cy="-224.2324"
     inkscape:document-units="px"
     inkscape:current-layer="layer1"
     showgrid="false"
     fit-margin-top="0"
     fit-margin-left="0"
     fit-margin-right="0"
     fit-margin-bottom="0"
     inkscape:window-width="1366"
     inkscape:window-height="746"
     inkscape:window-x="0"
     inkscape:window-y="0"
     inkscape:window-maximized="1" />
  <metadata
     id="metadata5393">
    <rdf:RDF>
      <cc:Work
         rdf:about="">
        <dc:format>image/svg+xml</dc:format>
        <dc:type
           rdf:resource="http://purl.org/dc/dcmitype/StillImage" />
        <dc:title />
      </cc:Work>
    </rdf:RDF>
  </metadata>
  <g
     inkscape:label="Layer 1"
     inkscape:groupmode="layer"
     id="layer1"
     transform="translate(2.7857146,2.9949105)">
    <path
       style="fill:#000000"
       d="m 339.46116,447.08178 c -19.60675,-2.38071 -37.86492,-10.78333 -52.98221,-24.38303 -11.70988,-10.53435 -23.81223,-30.45794 -28.17403,-46.38173 -1.10444,-4.03201 -2.48901,-11.90701 -3.07682,-17.5 -1.51622,-14.42668 -1.81196,-15.43989 -5.7928,-19.8462 -6.84864,-7.58062 -4.6077,-7.25274 -54.22101,-7.93315 -47.61782,-0.65305 -53.32165,-1.1734 -71.99195,-6.56767 C 81.010821,312.27413 45.106141,282.62025 24.813521,243.19361 14.177091,222.52804 8.8565514,203.64248 7.2803514,180.95867 3.9272714,132.70289 20.175501,89.056037 54.143831,55.071487 82.444261,26.757547 114.73142,11.672687 154.96429,7.9672271 c 15.84228,-1.45907 33.76,-0.17599 50.25,3.5983899 54.25672,12.41876 98.86014,52.96548 116.52949,105.931093 7.30144,21.88676 7.63546,24.93712 8.33879,76.15124 0.70448,51.29839 0.58334,50.42952 7.8684,56.43448 4.21638,3.4755 8.99275,4.76842 20.57777,5.57025 23.21252,1.60658 46.36302,12.70559 62.51392,29.97095 7.82416,8.36406 11.26947,13.47087 16.69765,24.75012 6.96786,14.47855 8.73369,22.5283 8.83474,40.2742 0.0707,12.40684 -0.30088,16.53463 -2.14908,23.87699 -8.67129,34.44845 -35.4743,61.51912 -69.33988,70.03232 -10.93793,2.7496 -25.35647,3.77135 -35.62493,2.52452 z m 51.81887,-77.96901 c 1.77827,-0.9517 1.93426,-2.22592 1.93426,-15.8 0,-10.15042 -0.37503,-15.13985 -1.2,-15.96482 -1.72365,-1.72365 -79.87635,-1.72365 -81.6,0 -0.82486,0.82486 -1.2,5.81118 -1.2,15.95031 0,12.99295 0.2085,14.87175 1.75,15.76959 2.40964,1.40349 77.69856,1.44559 80.31574,0.0449 z M 184.01429,240.94795 c 0.87473,-0.87473 1.2,-8.6 1.2,-28.5 l 0,-27.3 27.46482,0 c 26.1302,0 27.51512,-0.094 28.5,-1.93426 0.56935,-1.06384 1.03518,-7.61842 1.03518,-14.56574 0,-6.94732 -0.46583,-13.5019 -1.03518,-14.56574 -0.98488,-1.84027 -2.3698,-1.93426 -28.5,-1.93426 l -27.46482,0 0,-26.56574 c 0,-16.40009 -0.39612,-27.305913 -1.03518,-28.500003 -0.9525,-1.77975 -2.22779,-1.93426 -15.96482,-1.93426 -13.73703,0 -15.01232,0.15451 -15.96482,1.93426 -0.63901,1.19401 -1.03518,12.094993 -1.03518,28.484183 l 0,26.54992 -27.75,0.26582 -27.750009,0.26582 0,16 0,16 27.750009,0.26582 27.75,0.26582 0,26.54992 c 0,16.38919 0.39617,27.29017 1.03518,28.48418 0.9517,1.77827 2.22592,1.93426 15.8,1.93426 10.15042,0 15.13985,-0.37503 15.96482,-1.2 z"
       id="path3334"
       inkscape:connector-curvature="0" />
  </g>
</svg>
