<?xml version="1.0" encoding="UTF-8" standalone="no"?>
<!-- Created with Inkscape (http://www.inkscape.org/) -->

<svg
   xmlns:dc="http://purl.org/dc/elements/1.1/"
   xmlns:cc="http://creativecommons.org/ns#"
   xmlns:rdf="http://www.w3.org/1999/02/22-rdf-syntax-ns#"
   xmlns:svg="http://www.w3.org/2000/svg"
   xmlns="http://www.w3.org/2000/svg"
   xmlns:sodipodi="http://sodipodi.sourceforge.net/DTD/sodipodi-0.dtd"
   xmlns:inkscape="http://www.inkscape.org/namespaces/inkscape"
   id="svg3336"
   version="1.1"
   inkscape:version="0.91 r13725"
   width="122.13204"
   height="124.67209"
   viewBox="0 0 122.13204 124.67209"
   sodipodi:docname="user.svg">
  <metadata
     id="metadata3342">
    <rdf:RDF>
      <cc:Work
         rdf:about="">
        <dc:format>image/svg+xml</dc:format>
        <dc:type
           rdf:resource="http://purl.org/dc/dcmitype/StillImage" />
        <dc:title></dc:title>
      </cc:Work>
    </rdf:RDF>
  </metadata>
  <defs
     id="defs3340" />
  <sodipodi:namedview
     pagecolor="#ffffff"
     bordercolor="#666666"
     borderopacity="1"
     objecttolerance="10"
     gridtolerance="10"
     guidetolerance="10"
     inkscape:pageopacity="0"
     inkscape:pageshadow="2"
     inkscape:window-width="1366"
     inkscape:window-height="746"
     id="namedview3338"
     showgrid="false"
     fit-margin-top="0"
     fit-margin-left="0"
     fit-margin-right="0"
     fit-margin-bottom="0"
     inkscape:zoom="1.1191406"
     inkscape:cx="251.93651"
     inkscape:cy="-27.65437"
     inkscape:window-x="0"
     inkscape:window-y="0"
     inkscape:window-maximized="1"
     inkscape:current-layer="svg3336" />
  <path
     style="fill:#000000"
     d="M 58.85802,124.6405 C 32.09095,123.78002 8.6295979,104.67883 1.8177633,78.200861 0.23755537,72.058519 0.00150007,69.996733 1.0468549e-5,62.324145 -0.00109183,56.287703 0.08411917,54.824497 0.60598607,51.927005 3.0614144,38.294124 9.0285649,26.819639 18.51845,17.48238 27.974901,8.1780113 39.48202,2.4498336 52.65372,0.49002871 c 4.398184,-0.6544013 12.617859,-0.6531847 16.820543,0.002536 13.710645,2.13903719 25.371922,8.10099419 34.887857,17.83680089 9.34837,9.56437 15.24688,21.565068 17.27339,35.143206 0.66179,4.4342 0.66211,13.287282 5.5e-4,17.644224 -2.74993,18.113078 -12.30603,33.397334 -27.095532,43.337264 -10.446142,7.02083 -22.967092,10.59525 -35.682508,10.18649 z m 7.662838,-9.08171 C 84.222715,113.59815 99.729827,102.68416 107.86399,86.461256 113.50947,75.201834 115.00296,61.554383 111.94062,49.2094 106.88211,28.817376 90.324152,13.184356 69.887884,9.5057523 65.860389,8.7807883 58.606837,8.6345283 54.452807,9.1945183 42.731822,10.774588 32.264546,15.986167 24.015832,24.348865 3.3097405,45.341082 3.2981897,79.163288 23.989939,100.1976 c 11.211889,11.39751 26.960937,17.08571 42.53093,15.36119 z M 44.105572,89.45712 c -0.930741,-0.386945 -2.052567,-1.724592 -2.379807,-2.837644 -0.40883,-1.390572 -0.115709,-2.852731 0.792361,-3.952493 1.39428,-1.688596 1.028926,-1.656084 18.610249,-1.656084 15.116209,0 16.132735,0.03104 17.036214,0.52031 2.881893,1.560636 2.998351,5.894744 0.205029,7.630321 -0.871015,0.541185 -1.404134,0.557873 -17.305624,0.541623 -9.023811,-0.0092 -16.6551,-0.119938 -16.958422,-0.246033 z M 37.907956,65.105215 c -0.830455,-0.227419 -2.013541,-0.714258 -2.62908,-1.081865 -1.608463,-0.960591 -3.640774,-3.288037 -4.497368,-5.150474 -0.654492,-1.423023 -0.739017,-1.944265 -0.739017,-4.557339 0,-2.718535 0.06716,-3.094164 0.8541,-4.777065 4.650104,-9.944399 19.044244,-7.83347 20.763395,3.044994 1.258792,7.965401 -6.058946,14.628483 -13.75203,12.521749 z m 40.698416,0.155847 c -1.744877,-0.446669 -4.22813,-1.944372 -5.43367,-3.277164 -0.619289,-0.684658 -1.518651,-2.089483 -1.998587,-3.121829 -0.789155,-1.697488 -0.872611,-2.1323 -0.872611,-4.546532 0,-2.403114 0.08539,-2.853156 0.855547,-4.509372 1.476448,-3.175093 3.535729,-5.073047 6.672718,-6.149972 4.396813,-1.509417 9.306841,0.09899 12.19659,3.99531 1.515592,2.043499 2.059138,3.843565 2.059138,6.819207 0,2.371177 -0.06982,2.687725 -1.029834,4.667068 -1.863435,3.842098 -5.173777,6.096424 -9.241937,6.293702 -1.17526,0.05699 -2.618564,-0.0197 -3.207354,-0.170418 z"
     id="path3346"
     inkscape:connector-curvature="0" />
</svg>
