<?xml version="1.0" encoding="UTF-8" standalone="no"?>
<!-- Created with Inkscape (http://www.inkscape.org/) -->

<svg
   xmlns:dc="http://purl.org/dc/elements/1.1/"
   xmlns:cc="http://creativecommons.org/ns#"
   xmlns:rdf="http://www.w3.org/1999/02/22-rdf-syntax-ns#"
   xmlns:svg="http://www.w3.org/2000/svg"
   xmlns="http://www.w3.org/2000/svg"
   xmlns:sodipodi="http://sodipodi.sourceforge.net/DTD/sodipodi-0.dtd"
   xmlns:inkscape="http://www.inkscape.org/namespaces/inkscape"
   width="151.79929mm"
   height="25.199228mm"
   viewBox="0 0 537.87148 89.288604"
   id="svg2"
   version="1.1"
   inkscape:version="0.91 r13725"
   sodipodi:docname="zkart.svg">
  <defs
     id="defs4" />
  <sodipodi:namedview
     id="base"
     pagecolor="#ffffff"
     bordercolor="#666666"
     borderopacity="1.0"
     inkscape:pageopacity="0.0"
     inkscape:pageshadow="2"
     inkscape:zoom="0.7"
     inkscape:cx="79.314399"
     inkscape:cy="345.11966"
     inkscape:document-units="px"
     inkscape:current-layer="g3341"
     showgrid="false"
     inkscape:window-width="1366"
     inkscape:window-height="746"
     inkscape:window-x="0"
     inkscape:window-y="0"
     inkscape:window-maximized="1"
     fit-margin-top="0"
     fit-margin-left="0"
     fit-margin-right="0"
     fit-margin-bottom="0" />
  <metadata
     id="metadata7">
    <rdf:RDF>
      <cc:Work
         rdf:about="">
        <dc:format>image/svg+xml</dc:format>
        <dc:type
           rdf:resource="http://purl.org/dc/dcmitype/StillImage" />
        <dc:title />
      </cc:Work>
    </rdf:RDF>
  </metadata>
  <g
     inkscape:label="Layer 1"
     inkscape:groupmode="layer"
     id="layer1"
     transform="translate(-13.672733,-10.473248)">
    <g
       id="g4261"
       transform="translate(-130,-198.57143)">
      <g
         id="g3341"
         transform="translate(-17.142857,-130)">
        <g
           id="g3353">
          <path
             inkscape:connector-curvature="0"
             id="path3699"
             d="m 174.70984,403.7539 c 30.53156,-45.28262 33.28329,-48.1594 36.70405,-38.37207 2.44277,6.98914 4.52113,6.5411 7.83236,-1.68847 6.23744,-15.50224 -24.75253,-16.9719 -42.10295,-1.99669 -12.30314,10.6189 -13.06756,10.27663 -9.12899,-4.08743 3.54576,-12.93151 10.39574,-15.67677 39.11672,-15.67677 l 34.81821,0 -23.94889,33.19755 c -13.17189,18.25865 -23.94889,35.11904 -23.94889,37.46753 0,10.22911 31.39478,3.04673 38.65637,-8.84365 7.15225,-11.71136 8.03418,-11.31072 8.24756,3.74675 0.21706,15.31705 -3.43988,16.86039 -39.95044,16.86039 l -40.18936,0 13.89425,-20.60714 z m 27.98921,-20.60714 c 5.39424,-9.95444 2.72615,-8.69629 -7.94555,3.74675 -8.8368,10.30357 -16.09138,22.10585 -16.1213,26.22727 -0.0582,8.01861 10.82186,-5.53196 24.06685,-29.97402 z"
             style="fill:#000000" />
          <path
             inkscape:connector-curvature="0"
             id="path4168"
             d="m 257.00148,421.28829 c -0.0917,-0.12853 -0.0122,-0.40436 0.17689,-0.61297 0.25065,-0.2766 13.8095,-14.00832 19.41072,-19.6582 0.29636,-0.29894 -1.01562,-1.95762 -9.68365,-12.24259 -7.50342,-8.90311 -10.02647,-12.05276 -10.02647,-12.5166 l 0,-0.61982 22.9663,0 22.9663,0 1.89394,3.84202 c 1.04167,2.11311 2.0529,4.16775 2.24718,4.56587 0.3385,0.69363 0.32891,0.72386 -0.22946,0.72386 -0.4289,0 -0.74625,-0.26694 -1.20241,-1.01143 -0.88641,-1.44667 -3.31634,-3.29824 -5.54829,-4.22771 -4.74159,-1.97459 -9.24448,-2.38604 -25.0509,-2.28904 l -10.89743,0.0669 8.90379,10.52939 c 4.89707,5.79117 8.90377,10.588 8.90377,10.65961 0,0.0716 -4.13843,4.30119 -9.19651,9.39904 -5.05809,5.09785 -9.47555,9.55545 -9.8166,9.90576 l -0.62008,0.63695 14.76856,-0.10235 c 15.71374,-0.1089 16.54883,-0.16124 20.48932,-1.28405 3.96169,-1.12885 6.61817,-2.79844 7.94155,-4.99126 0.56592,-0.93772 0.88162,-1.23197 1.32222,-1.23238 0.31835,-2.2e-4 0.57774,0.0245 0.57644,0.0552 -10e-4,0.0306 -1.02615,2.41101 -2.27747,5.28974 l -2.2751,5.23405 -22.78789,0.0569 c -15.69471,0.0392 -22.83982,-0.0159 -22.95472,-0.1768 z"
             style="fill:#000000" />
          <path
             inkscape:connector-curvature="0"
             id="path3350"
             d="m 314.7411,422.25851 c 0,-1.03377 0.42978,-1.26851 2.34262,-1.2795 1.64496,-0.009 3.50036,-0.56654 4.58586,-1.37693 l 1.10334,-0.82372 0,-21.14925 c 0,-18.43806 -0.0652,-21.24344 -0.50888,-21.88393 -0.69274,-1.0001 -2.87903,-1.77892 -5.42147,-1.93128 l -2.10147,-0.12593 0,-0.96518 0,-0.96517 28.78069,0 28.78068,0 0,0.96517 0,0.96518 -2.16223,0.12957 c -2.45161,0.14692 -4.34039,0.7775 -5.34862,1.78568 -0.68187,0.68183 -0.68829,0.88457 -0.68829,21.73032 0,19.86068 0.0339,21.08069 0.60383,21.73008 0.82687,0.94213 2.42611,1.62041 4.23782,1.79736 3.44611,0.3366 3.40449,0.31984 3.29221,1.32564 l -0.10205,0.91405 -11.96406,0.0656 -11.96406,0.0656 0,-0.99121 c 0,-0.9403 0.0602,-0.99821 1.1713,-1.12746 0.64422,-0.0749 1.73084,-0.20209 2.41472,-0.28258 1.79592,-0.21137 3.04393,-0.76364 3.79002,-1.67716 0.63502,-0.77751 0.65331,-1.4231 0.65452,-23.09849 l 0.001,-22.29863 -12.89469,0 -12.89468,0 0.094,22.30978 c 0.0885,21.01481 0.12902,22.3497 0.69781,22.99762 0.82696,0.94202 2.42627,1.62027 4.23782,1.79721 3.44611,0.3366 3.40448,0.31983 3.2922,1.32564 l -0.10204,0.91405 -11.96406,0.0656 -11.96407,0.0656 0,-0.9734 z"
             style="fill:#000000" />
          <path
             inkscape:connector-curvature="0"
             id="path3351"
             d="m 419.85935,382.26041 0,-44.6443 45.58304,0 45.58304,0 0,44.6443 0,44.6443 -45.58304,0 -45.58304,0 0,-44.6443 z m 62.73017,27.98378 c 3.50109,-1.85433 4.92781,-6.57191 2.9349,-9.70451 -1.11422,-1.75141 -14.56689,-14.5874 -18.5658,-17.71473 l -2.58833,-2.0242 3.04734,-4.74342 c 3.94692,-6.14369 7.89643,-10.2622 12.25779,-12.78227 5.27093,-3.04563 5.748,-3.53183 6.09955,-6.21633 0.27156,-2.07368 0.10304,-2.6503 -1.14957,-3.93324 -2.00235,-2.05084 -3.5803,-1.90169 -9.22816,0.8723 -8.35079,4.10154 -15.14076,9.97448 -24.57919,21.25959 -1.87914,2.24681 -3.71628,4.65872 -4.08253,5.3598 -1.68894,3.23297 -0.0239,6.85504 4.0885,8.89404 4.33226,2.14799 9.20751,5.99253 16.31948,12.86927 3.8097,3.68368 7.61361,7.16158 8.45313,7.72866 1.88612,1.27403 4.7384,1.32911 6.99289,0.13504 z"
             style="fill:#000000" />
          <path
             inkscape:connector-curvature="0"
             id="path3352"
             d="m 519.02128,423.83617 c -0.0672,-0.13881 -0.0896,-0.47233 -0.0497,-0.74116 0.0651,-0.43919 0.20525,-0.51256 1.38092,-0.72321 4.39072,-0.78669 6.27341,-2.63563 9.79135,-9.61581 0.61335,-1.21698 2.15019,-4.2041 3.4152,-6.63805 1.26502,-2.43395 3.78083,-7.293 5.5907,-10.7979 1.80986,-3.50489 4.42303,-8.56308 5.80704,-11.24043 1.38401,-2.67734 3.50037,-6.77966 4.70302,-9.11625 1.20265,-2.3366 2.28674,-4.35195 2.40908,-4.47857 0.12909,-0.13362 0.55384,-0.2079 1.01221,-0.17702 0.89762,0.0605 0.15818,-1.12376 6.16764,9.87752 1.56887,2.87206 4.18587,7.65146 5.81556,10.62088 1.62968,2.96942 4.29378,7.82847 5.92021,10.7979 7.29409,13.31705 8.36194,15.22663 9.34358,16.70868 2.05417,3.10133 3.35052,3.82008 7.70097,4.26976 l 1.07368,0.11098 -0.0684,0.65146 -0.0684,0.65147 -13.40355,0 -13.40355,0 -0.0686,-0.65389 c -0.0647,-0.61717 -0.0271,-0.65925 0.67018,-0.74943 0.40632,-0.0525 1.32181,-0.17452 2.03442,-0.27106 3.8791,-0.5255 5.18487,-2.05084 4.30628,-5.03043 -0.44266,-1.50121 -1.27813,-3.16394 -4.99183,-9.93457 -6.8249,-12.4428 -9.81491,-17.91169 -11.61355,-21.24176 -1.0517,-1.94716 -1.97799,-3.60103 -2.05842,-3.67527 -0.0804,-0.0742 -1.58771,2.67391 -3.34952,6.107 -1.7618,3.4331 -4.35049,8.47238 -5.75264,11.1984 -8.40683,16.34438 -8.77583,17.14113 -8.77583,18.94885 0,1.13964 0.28002,1.77541 1.07533,2.44148 0.96992,0.8123 1.83244,1.0611 5.02486,1.44944 0.8243,0.10028 0.84835,0.12358 0.78187,0.75735 l -0.0686,0.65389 -10.11464,0.0461 c -8.58855,0.0391 -10.13309,0.008 -10.23687,-0.20631 z"
             style="fill:#000000" />
          <path
             inkscape:connector-curvature="0"
             id="path3354"
             d="m 597.50035,421.41628 c 0,-0.66432 1.36003,-1.05729 3.65921,-1.05729 2.9982,0 3.76184,-0.34378 4.22738,-1.90311 0.99318,-3.32669 0.66163,-37.00256 -0.38153,-38.75221 -0.67625,-1.13425 -1.9768,-1.63605 -4.24024,-1.63605 -2.27388,0 -3.26482,-0.38509 -3.26482,-1.26874 0,-1.08819 2.86566,-1.26874 20.13724,-1.26874 l 20.13723,0 0.66493,5.28642 c 0.36571,2.90753 0.8975,6.33313 1.18177,7.61245 0.29173,1.31288 0.1008,2.32602 -0.43835,2.32602 -0.52535,0 -1.24069,-1.36608 -1.58964,-3.03573 -1.66714,-7.97703 -4.52354,-9.65168 -16.46254,-9.65168 l -8.58714,0 0.25203,20.93423 0.25203,20.93423 4.47582,0.2578 c 2.68284,0.15453 4.47581,0.66278 4.47581,1.26874 0,0.7322 -3.37759,1.01094 -12.24959,1.01094 -9.1715,0 -12.2496,-0.26567 -12.2496,-1.05728 z"
             style="fill:#000000" />
          <path
             inkscape:connector-curvature="0"
             id="path3356"
             d="m 666.78207,425.49175 c -1.91458,-0.93232 -3.34514,-2.36943 -4.1575,-4.17655 -0.56767,-1.26279 -0.66949,-2.42329 -0.67618,-7.70679 -0.004,-3.42108 -0.10583,-6.47804 -0.22556,-6.79324 -0.18727,-0.49302 -1.12671,-0.5742 -6.72438,-0.58105 -7.12352,-0.009 -8.23375,-0.26094 -10.40308,-2.36343 -3.30495,-3.2031 -3.18844,-9.35082 0.2385,-12.58484 2.04336,-1.92833 3.11452,-2.1787 10.29261,-2.40575 l 6.63472,-0.20986 0.17932,-6.88381 c 0.15093,-5.79419 0.28529,-7.08453 0.84884,-8.15188 1.5144,-2.86824 4.17906,-4.43264 7.57904,-4.4496 3.55826,-0.0178 5.81086,1.29159 7.65509,4.4496 0.92404,1.58231 0.95574,1.83062 1.07536,8.42361 l 0.12325,6.79323 5.50758,0 c 3.02916,0 6.31426,0.17478 7.30023,0.3884 2.32756,0.50428 4.39807,2.04638 5.66031,4.21573 0.85582,1.47088 1.00808,2.12671 0.99626,4.29119 -0.0163,2.98104 -1.04288,5.16767 -3.21022,6.83772 -1.88731,1.45426 -2.89379,1.6319 -9.49217,1.67541 -3.29002,0.0217 -6.15658,0.14885 -6.37012,0.28257 -0.24839,0.15555 -0.4333,2.66809 -0.51331,6.97499 l -0.12506,6.73186 -1.08438,1.77112 c -0.59641,0.97412 -1.7795,2.26467 -2.62908,2.86789 -1.34389,0.9542 -1.90221,1.11011 -4.29511,1.1994 -2.13377,0.0796 -3.07206,-0.054 -4.18496,-0.59592 z"
             style="fill:#000000" />
        </g>
      </g>
    </g>
  </g>
</svg>
