<?xml version="1.0" encoding="UTF-8" standalone="no"?>
<!-- Created with Inkscape (http://www.inkscape.org/) -->

<svg
   xmlns:dc="http://purl.org/dc/elements/1.1/"
   xmlns:cc="http://creativecommons.org/ns#"
   xmlns:rdf="http://www.w3.org/1999/02/22-rdf-syntax-ns#"
   xmlns:svg="http://www.w3.org/2000/svg"
   xmlns="http://www.w3.org/2000/svg"
   xmlns:sodipodi="http://sodipodi.sourceforge.net/DTD/sodipodi-0.dtd"
   xmlns:inkscape="http://www.inkscape.org/namespaces/inkscape"
   id="svg2"
   height="3.239368mm"
   width="3.2953131mm"
   version="1.1"
   viewBox="0 0 11.676192 11.478023"
   inkscape:version="0.91 r13725"
   sodipodi:docname="calender.svg">
  <defs
     id="defs4611" />
  <sodipodi:namedview
     pagecolor="#ffffff"
     bordercolor="#666666"
     borderopacity="1"
     objecttolerance="10"
     gridtolerance="10"
     guidetolerance="10"
     inkscape:pageopacity="0"
     inkscape:pageshadow="2"
     inkscape:window-width="1366"
     inkscape:window-height="746"
     id="namedview4609"
     showgrid="false"
     showguides="true"
     inkscape:guide-bbox="true"
     inkscape:zoom="2.4387145"
     inkscape:cx="64.657124"
     inkscape:cy="81.411882"
     inkscape:window-x="0"
     inkscape:window-y="0"
     inkscape:window-maximized="1"
     inkscape:current-layer="layer1"
     fit-margin-top="0"
     fit-margin-left="0"
     fit-margin-right="0"
     fit-margin-bottom="0">
    <sodipodi:guide
       position="-38.620791,7.3949194"
       orientation="1,0"
       id="guide5153" />
  </sodipodi:namedview>
  <metadata
     id="metadata7">
    <rdf:RDF>
      <cc:Work
         rdf:about="">
        <dc:format>image/svg+xml</dc:format>
        <dc:type
           rdf:resource="http://purl.org/dc/dcmitype/StillImage" />
        <dc:title></dc:title>
      </cc:Work>
    </rdf:RDF>
  </metadata>
  <g
     id="layer1"
     transform="translate(-3.4871332,-112.53186)"
     style="fill:#69b543">
    <g
       id="calander"
       transform="matrix(0.21839,0,0,0.21753,-5.5763,-9.2072)">
      <path
         id="path4679"
         d="m 81.33,597.24 c 0,-2.5832 0.2213,-4.4001 0.56155,-4.6104 0.91614,-0.56621 1.4428,0.85758 1.451,3.9228 l 0.0077,2.8778 2.6469,0.15266 c 2.0457,0.11799 2.6851,0.35342 2.815,1.0366 0.14805,0.77878 -0.28682,0.88388 -3.6571,0.88388 l -3.8251,0 0,-4.2633 z"
         inkscape:connector-curvature="0" />
      <path
         id="path4681"
         d="m 80.32,612.15 c -5.2907,-1.0996 -9.5712,-6.089 -9.75,-11.365 -0.28857,-8.5172 7.5114,-14.937 15.328,-12.616 3.6259,1.0768 6.1684,3.162 7.7671,6.3704 4.5335,9.0976 -3.4721,19.662 -13.345,17.61 z m 8.6908,-2.8392 c 3.1605,-2.1908 5.0805,-6.1358 4.827,-9.9177 -0.27422,-4.0902 -2.3249,-7.2465 -5.9495,-9.1569 -2.4358,-1.2839 -3.153,-1.4306 -5.9423,-1.2157 -7.1852,0.55358 -11.704,7.14 -9.7754,14.248 0.72574,2.6745 3.2955,5.7102 5.8407,6.8998 3.1918,1.4918 8.1702,1.1038 10.999,-0.8573 z"
         inkscape:connector-curvature="0" />
      <path
         id="path4683"
         d="m 44.415,606.41 c -3.0262,-2.0393 -3.0099,-1.9168 -2.8655,-21.577 0.1251,-17.025 0.18274,-17.999 1.1419,-19.298 0.80318,-1.0876 3.0695,-2.4202 4.116,-2.4202 0.09744,0 0.17717,1.374 0.17717,3.0534 0,2.5685 0.1969,3.2503 1.2397,4.2932 1.7378,1.7378 3.9864,1.6471 5.8702,-0.23664 1.2788,-1.2788 1.4764,-1.8533 1.4764,-4.2932 l 0,-2.8168 1.7678,0 1.7678,0 0,3.0534 c 0,2.5685 0.1969,3.2503 1.2397,4.2932 1.5336,1.5336 3.7094,1.6098 5.5107,0.19292 1.1911,-0.9369 1.3308,-1.3877 1.3308,-4.2931 l 0,-3.2463 2.0203,0 2.0203,0 0,3.2463 c 0,2.9055 0.13973,3.3562 1.3308,4.2931 1.6955,1.3337 3.7241,1.3337 5.4196,0 1.1911,-0.9369 1.3308,-1.3877 1.3308,-4.2931 0,-1.7855 0.12094,-3.2463 0.26876,-3.2463 0.14782,0 1.0419,0.32302 1.9868,0.71782 2.9639,1.2384 3.3003,2.5784 3.3003,13.147 l 0,9.369 -1.2627,0 c -1.2533,0 -1.2627,-0.0337 -1.2627,-4.5457 l 0,-4.5457 -19.193,0 -19.193,0 0,12.65 0,12.65 1.2397,1.2397 1.2397,1.2397 11.369,0 c 10.724,0 11.399,0.0555 11.892,0.97695 0.28757,0.53732 0.52285,1.1055 0.52285,1.2627 0,0.15716 -5.4212,0.28574 -12.047,0.28574 -11.704,0 -12.096,-0.0328 -13.756,-1.1516 z"
         inkscape:connector-curvature="0" />
      <path
         id="path4685"
         d="m 74.259,569.8 c -1.4318,-0.44645 -2.0203,-1.8338 -2.0203,-4.7623 0,-2.2605 0.23186,-3.1658 1.0102,-3.9441 0.55558,-0.55558 1.2374,-1.0102 1.5152,-1.0102 0.27779,0 0.95964,0.45457 1.5152,1.0102 0.76816,0.76816 1.0102,1.6836 1.0102,3.8213 0,3.8814 -1.0129,5.5142 -3.0305,4.8851 z"
         inkscape:connector-curvature="0" />
      <path
         id="path4687"
         d="m 71.012,584.55 c -0.92269,-0.92269 -1.0042,-1.9098 -0.27084,-3.2801 0.75455,-1.4099 5.2708,-1.4099 6.0254,0 0.73336,1.3703 0.65185,2.3574 -0.27084,3.2801 -1.0314,1.0314 -4.4523,1.0314 -5.4837,0 z"
         inkscape:connector-curvature="0" />
      <path
         id="path4689"
         d="m 60.91,584.55 c -0.98891,-0.98891 -1.0282,-2.9286 -0.07532,-3.7194 0.40198,-0.33361 1.7923,-0.52769 3.1567,-0.44065 l 2.4384,0.15555 0.16122,1.9689 c 0.10102,1.2337 -0.08758,2.1267 -0.50508,2.3914 -1.1168,0.70815 -4.3331,0.4871 -5.1759,-0.35574 z"
         inkscape:connector-curvature="0" />
      <path
         id="path4691"
         d="m 50.621,584.73 c -0.78131,-0.78131 -0.78131,-3.0573 0,-3.8386 0.63758,-0.63758 3.8015,-0.8212 5.161,-0.29952 0.9558,0.36678 1.0897,3.2412 0.19283,4.1381 -0.78505,0.78505 -4.5688,0.78505 -5.3538,0 z"
         inkscape:connector-curvature="0" />
      <path
         id="path4693"
         d="m 50.224,592.23 c -0.15625,-0.40718 -0.21032,-1.3846 -0.12016,-2.172 0.15972,-1.3948 0.24182,-1.4316 3.1944,-1.4316 l 3.0305,0 0,2.0203 0,2.0203 -2.9103,0.15165 c -2.1935,0.11431 -2.9803,-0.0307 -3.1944,-0.58868 z"
         inkscape:connector-curvature="0" />
      <path
         id="path4695"
         d="m 50.621,600.39 c -0.78131,-0.78131 -0.78131,-3.0573 0,-3.8386 0.33335,-0.33335 1.538,-0.60609 2.6769,-0.60609 1.1389,0 2.3436,0.27274 2.6769,0.60609 0.89692,0.89692 0.76297,3.7713 -0.19283,4.1381 -1.3595,0.52168 -4.5234,0.33807 -5.161,-0.29952 z"
         inkscape:connector-curvature="0" />
      <path
         id="path4697"
         d="m 60.745,600.41 c -0.86951,-0.86951 -0.78608,-2.7216 0.16548,-3.6731 0.84284,-0.84284 4.0591,-1.0639 5.1759,-0.35574 0.4175,0.26473 0.6061,1.1577 0.50508,2.3914 l -0.16122,1.9689 -2.5285,0.14839 c -1.5302,0.0898 -2.7765,-0.0996 -3.1567,-0.47982 z"
         inkscape:connector-curvature="0" />
      <path
         id="path4699"
         d="m 60.339,591.71 c -0.17269,-0.68803 -0.16107,-1.7327 0.02581,-2.3215 0.30165,-0.95042 0.66103,-1.0537 3.2023,-0.92033 l 2.8625,0.15023 0,2.0203 0,2.0203 -2.8884,0.151 c -2.7081,0.14158 -2.908,0.0729 -3.2023,-1.1 z"
         inkscape:connector-curvature="0" />
      <path
         id="path4701"
         d="m 62.307,569.07 c -1.9793,-0.92674 -2.4401,-6.7126 -0.67518,-8.4776 1.2365,-1.2365 1.6095,-1.2522 3.0004,-0.12586 0.96023,0.77755 1.0737,1.3039 0.93984,4.3602 -0.12372,2.8252 -0.34133,3.5956 -1.1624,4.1153 -0.72262,0.45742 -1.3211,0.49382 -2.1027,0.12786 z"
         inkscape:connector-curvature="0" />
      <path
         id="path4703"
         d="m 50.118,568.89 c -0.96038,-0.67268 -1.1119,-1.2431 -1.1053,-4.1602 0.0091,-3.9569 0.395,-4.7696 2.2651,-4.7696 1.9174,0 2.2997,0.86491 2.1502,4.8651 -0.10674,2.8565 -0.31412,3.5981 -1.1635,4.1602 -0.88018,0.58254 -1.1988,0.56837 -2.1466,-0.0955 z"
         inkscape:connector-curvature="0" />
    </g>
  </g>
</svg>
