<?xml version="1.0" encoding="UTF-8" standalone="no"?>
<!-- Created with Inkscape (http://www.inkscape.org/) -->

<svg
   xmlns:dc="http://purl.org/dc/elements/1.1/"
   xmlns:cc="http://creativecommons.org/ns#"
   xmlns:rdf="http://www.w3.org/1999/02/22-rdf-syntax-ns#"
   xmlns:svg="http://www.w3.org/2000/svg"
   xmlns="http://www.w3.org/2000/svg"
   xmlns:sodipodi="http://sodipodi.sourceforge.net/DTD/sodipodi-0.dtd"
   xmlns:inkscape="http://www.inkscape.org/namespaces/inkscape"
   width="31.992769mm"
   height="31.187279mm"
   viewBox="0 0 113.36021 110.50611"
   id="svg2"
   version="1.1"
   inkscape:version="0.91 r13725"
   sodipodi:docname="conf.svg">
  <defs
     id="defs4" />
  <sodipodi:namedview
     id="base"
     pagecolor="#ffffff"
     bordercolor="#666666"
     borderopacity="1.0"
     inkscape:pageopacity="0.0"
     inkscape:pageshadow="2"
     inkscape:zoom="0.7"
     inkscape:cx="-103.90709"
     inkscape:cy="-50.645665"
     inkscape:document-units="px"
     inkscape:current-layer="layer1"
     showgrid="false"
     inkscape:window-width="1366"
     inkscape:window-height="746"
     inkscape:window-x="0"
     inkscape:window-y="0"
     inkscape:window-maximized="1"
     fit-margin-top="0"
     fit-margin-left="0"
     fit-margin-right="0"
     fit-margin-bottom="0" />
  <metadata
     id="metadata7">
    <rdf:RDF>
      <cc:Work
         rdf:about="">
        <dc:format>image/svg+xml</dc:format>
        <dc:type
           rdf:resource="http://purl.org/dc/dcmitype/StillImage" />
        <dc:title></dc:title>
      </cc:Work>
    </rdf:RDF>
  </metadata>
  <g
     inkscape:label="Layer 1"
     inkscape:groupmode="layer"
     id="layer1"
     transform="translate(-1.6362233,-2.6008358)">
    <path
       style="fill:#69b543"
       d="m 52.279263,112.8372 c -0.05596,-0.14837 -1.277517,-3.47469 -2.714565,-7.39182 -1.437045,-3.91712 -2.722015,-7.229724 -2.855484,-7.361314 -0.133471,-0.1316 -2.16942,-0.98474 -4.52433,-1.89587 l -4.281656,-1.65661 -7.391883,3.62243 -7.39188,3.622434 -4.43331,-4.314374 c -2.43832,-2.37291 -4.433309,-4.4362 -4.433309,-4.58509 0,-0.1489 1.556626,-3.48981 3.459168,-7.42423 l 3.459169,-7.15351 -0.73717,-1.75013 c -0.405444,-0.96257 -1.242564,-2.91555 -1.860267,-4.33996 l -1.123097,-2.58984 -4.753851,-1.52115 c -2.614618,-0.83663 -6.1721165,-1.95349 -7.9055522,-2.48192 l -3.1517017,-0.96078 -0.00325,-6.28963 c -0.0025,-4.83692 0.060673,-6.3127 0.2735021,-6.3895 0.1522124,-0.0549 3.6143543,-1.24573 7.6936493,-2.64623 4.0792935,-1.40051 7.5312005,-2.65279 7.6709045,-2.78284 0.139704,-0.13006 1.077904,-2.11817 2.08489,-4.41803 l 1.830884,-4.18157 -3.71974,-7.11806 -3.719739,-7.11805 4.511023,-4.40126 c 2.481063,-2.42068 4.595783,-4.40125 4.699377,-4.40125 0.103594,0 3.475773,1.50918 7.493731,3.35373 5.317701,2.44123 7.432835,3.31429 7.773817,3.2088 0.908074,-0.28095 8.236986,-3.34588 8.414505,-3.51893 0.09892,-0.0964 1.307367,-3.56428 2.685442,-7.70636 l 2.50559,-7.5310502 6.429375,-0.0572 6.429375,-0.0572 0.350483,0.92046 c 0.192766,0.50625 1.442005,3.92147 2.776088,7.5893702 1.334083,3.6679 2.505273,6.74093 2.602645,6.82895 0.09737,0.088 2.113083,0.96608 4.479362,1.95122 l 4.302326,1.79116 7.290439,-3.63032 7.290442,-3.63032 4.514085,4.39638 c 2.48274,2.41801 4.51408,4.4825 4.51408,4.58776 0,0.10526 -1.54427,3.36228 -3.431703,7.23782 -1.887437,3.87554 -3.432205,7.14091 -3.432822,7.25637 -6.65e-4,0.11546 0.802289,2.10918 1.784235,4.43049 l 1.785367,4.22055 7.680613,2.47186 7.68061,2.47186 0.0586,6.2832 0.0587,6.2832 -0.61215,0.24129 c -0.33668,0.13271 -3.78715,1.35111 -7.66771,2.70756 -3.88056,1.35645 -7.128843,2.54707 -7.218393,2.64584 -0.0896,0.0988 -0.932057,2.06741 -1.872227,4.37477 l -1.709408,4.1952 3.724895,7.18023 3.724903,7.18023 -4.42592,4.32545 c -2.434264,2.37899 -4.559852,4.325444 -4.723533,4.325444 -0.163683,0 -3.545773,-1.505344 -7.515756,-3.345204 -3.96998,-1.83987 -7.316432,-3.34521 -7.436554,-3.34521 -0.120123,0 -2.177035,0.78441 -4.570918,1.74314 l -4.352515,1.74314 -2.515032,7.537104 -2.515033,7.53711 -6.46503,0 c -4.970154,0 -6.488555,-0.0624 -6.566778,-0.26978 z m 8.617604,-37.298864 c 4.110724,-0.55028 7.380343,-2.14488 10.366469,-5.05574 4.654721,-4.5374 6.382642,-10.64963 4.758937,-16.83393 -2.205691,-8.40093 -10.860204,-14.1936 -19.508423,-13.05745 -4.530638,0.59521 -7.833231,2.19345 -10.93291,5.29081 -3.353135,3.35062 -5.054202,7.49346 -5.049973,12.29885 0.0033,3.71398 0.892852,6.53524 3.062302,9.71189 3.010501,4.40817 7.186226,6.86179 13.168369,7.7376 1.118466,0.16374 2.445122,0.13422 4.135229,-0.092 z"
       id="path3417"
       inkscape:connector-curvature="0" />
  </g>
</svg>
