<?xml version="1.0" encoding="UTF-8" standalone="no"?>
<!-- Created with Inkscape (http://www.inkscape.org/) -->

<svg
   xmlns:dc="http://purl.org/dc/elements/1.1/"
   xmlns:cc="http://creativecommons.org/ns#"
   xmlns:rdf="http://www.w3.org/1999/02/22-rdf-syntax-ns#"
   xmlns:svg="http://www.w3.org/2000/svg"
   xmlns="http://www.w3.org/2000/svg"
   xmlns:sodipodi="http://sodipodi.sourceforge.net/DTD/sodipodi-0.dtd"
   xmlns:inkscape="http://www.inkscape.org/namespaces/inkscape"
   id="svg2"
   height="3.6381402mm"
   width="3.818224mm"
   version="1.1"
   viewBox="0 0 13.529008 12.890989"
   inkscape:version="0.91 r13725"
   sodipodi:docname="items.svg">
  <defs
     id="defs4611" />
  <sodipodi:namedview
     pagecolor="#ffffff"
     bordercolor="#666666"
     borderopacity="1"
     objecttolerance="10"
     gridtolerance="10"
     guidetolerance="10"
     inkscape:pageopacity="0"
     inkscape:pageshadow="2"
     inkscape:window-width="1366"
     inkscape:window-height="746"
     id="namedview4609"
     showgrid="false"
     showguides="true"
     inkscape:guide-bbox="true"
     inkscape:zoom="1.7244315"
     inkscape:cx="4.9847903"
     inkscape:cy="-48.262248"
     inkscape:window-x="0"
     inkscape:window-y="0"
     inkscape:window-maximized="1"
     inkscape:current-layer="layer1"
     fit-margin-top="0"
     fit-margin-left="0"
     fit-margin-right="0"
     fit-margin-bottom="0">
    <sodipodi:guide
       position="-37.096844,-62.253429"
       orientation="1,0"
       id="guide5153" />
  </sodipodi:namedview>
  <metadata
     id="metadata7">
    <rdf:RDF>
      <cc:Work
         rdf:about="">
        <dc:format>image/svg+xml</dc:format>
        <dc:type
           rdf:resource="http://purl.org/dc/dcmitype/StillImage" />
        <dc:title></dc:title>
      </cc:Work>
    </rdf:RDF>
  </metadata>
  <g
     id="layer1"
     transform="translate(-1.9631739,-41.470537)"
     style="fill:#69b543">
    <g
       id="g5668"
       transform="matrix(0.18999515,0,0,0.18441802,-10.389782,31.747886)">
      <path
         id="path5641"
         d="M 75.823,83.465 C 65.66,79.998 61.734,67.716 68.109,59.327 c 2.9817,-3.9241 6.8607,-5.9108 12.048,-6.1705 4.9594,-0.24824 8.2556,1.0351 11.892,4.6299 3.4619,3.4224 4.8974,7.8299 4.2792,13.139 -0.65433,5.6196 -4.8347,10.546 -10.596,12.487 -2.7459,0.92503 -7.2796,0.94882 -9.9087,0.05199 z m 7.0122,-10.217 0,-2.6786 2.6786,0 2.6786,0 0,-1.9643 0,-1.9643 -2.6786,0 -2.6786,0 0,-2.6786 0,-2.6786 -1.9643,0 -1.9643,0 0,2.6786 0,2.6786 -2.6786,0 -2.6786,0 0,1.9643 0,1.9643 2.6786,0 2.6786,0 0,2.6786 0,2.6786 1.9643,0 1.9643,0 0,-2.6786 z"
         inkscape:connector-curvature="0" />
      <path
         id="path5643"
         d="m 77.478,122.32 c -4.4716,-0.87329 -9.0651,-4.6411 -11.162,-9.1557 -1.0301,-2.2178 -1.1233,-2.7248 -1.1333,-6.1665 -0.0105,-3.6021 0.04083,-3.8565 1.3014,-6.4497 4.7924,-9.8592 17.061,-12.265 25.097,-4.9205 4.9934,4.5637 6.3374,12.094 3.2671,18.306 -3.1165,6.3059 -10.289,9.7688 -17.37,8.386 z m 2.1429,-10.501 c 0.48287,-0.88392 0.98979,-1.6071 1.1265,-1.6071 0.1367,0 0.6246,0.68304 1.0842,1.5179 0.83088,1.5092 0.84839,1.5185 3.0625,1.6242 1.2248,0.0585 2.2268,-0.0334 2.2268,-0.20426 0,-0.17083 -0.82331,-1.5044 -1.8296,-2.9635 -1.00629,-1.4591 -1.9022,-2.8401 -1.9908,-3.069 -0.0887,-0.22884 0.73661,-1.7556 1.834,-3.3929 l 1.9953,-2.9768 -1.8369,-0.10957 c -2.4012,-0.14324 -2.6412,-0.0239 -3.5559,1.7692 -0.84282,1.6521 -0.86824,1.6435 -2.1887,-0.74008 -0.57504,-1.038 -0.72676,-1.0982 -2.7679,-1.0982 -1.1877,0 -2.1595,0.0819 -2.1595,0.18208 0,0.10014 0.89806,1.5316 1.9957,3.1809 l 1.9957,2.9988 -1.9957,2.8481 c -1.0976,1.5664 -1.9957,3.0279 -1.9957,3.2476 0,0.2485 0.77921,0.39957 2.061,0.39957 l 2.061,0 0.87794,-1.6072 z"
         inkscape:connector-curvature="0" />
      <path
         id="path5645"
         d="m 117.85,122.31 c -4.7194,-0.58168 -9.536,-4.024 -11.725,-8.3791 -3.2244,-6.4164 -2.1656,-13.307 2.8329,-18.437 7.842,-8.0483 21.25,-5.6605 26.137,4.6546 1.0652,2.2484 1.1302,2.6218 1.1296,6.4927 -5.9e-4,3.8462 -0.0705,4.2546 -1.1008,6.4286 -2.2081,4.6591 -7.1196,8.5477 -11.494,9.1001 -0.9297,0.1174 -2.0922,0.26083 -2.5832,0.31872 -0.49107,0.0579 -1.9295,-0.0225 -3.1965,-0.17868 z m 8.5537,-13.169 0,-1.4286 -6.0714,0 -6.0714,0 0,1.4286 0,1.4286 6.0714,0 6.0714,0 0,-1.4286 z m 0,-5.3658 0,-1.4372 -5.9821,0.0979 -5.9822,0.0979 -0.11084,1.3393 -0.11085,1.3393 6.093,0 6.093,0 0,-1.4372 z"
         inkscape:connector-curvature="0" />
      <path
         id="path5647"
         d="m 115.33,83.925 c -4.1201,-1.1023 -8.3068,-4.6106 -10.149,-8.5045 -5.7567,-12.169 5.4472,-25.569 18.529,-22.161 4.6155,1.2022 8.2702,4.2414 10.482,8.7165 1.278,2.5858 1.3162,2.7785 1.3162,6.6288 0,3.8567 -0.0365,4.0394 -1.328,6.6526 -3.543,7.1687 -11.235,10.705 -18.851,8.6677 z m 10.714,-15.32 0,-1.9643 -6.4286,0 -6.4286,0 0,1.9643 0,1.9643 6.4286,0 6.4286,0 0,-1.9643 z"
         inkscape:connector-curvature="0" />
    </g>
  </g>
</svg>
