<?xml version="1.0" encoding="UTF-8" standalone="no"?>
<svg id="svg2" xmlns:rdf="http://www.w3.org/1999/02/22-rdf-syntax-ns#" xmlns="http://www.w3.org/2000/svg" height="3.4132mm" viewBox="0 0 12.76395 12.093996" width="3.6023mm" version="1.1" xmlns:cc="http://creativecommons.org/ns#" xmlns:dc="http://purl.org/dc/elements/1.1/">
 <metadata id="metadata11">
  <rdf:RDF>
   <cc:Work rdf:about="">
    <dc:format>image/svg+xml</dc:format>
    <dc:type rdf:resource="http://purl.org/dc/dcmitype/StillImage"/>
    <dc:title/>
   </cc:Work>
  </rdf:RDF>
 </metadata>
 <g id="layer1" transform="translate(-2.0044 -4.5074)" fill="#69b543">
  <g id="newitm" transform="matrix(.21692 0 0 .22666 -3.9614 1.7726)">
   <path id="path5204" d="m53.521 52.04c-0.55695-0.55695-1.0126-3.1555-1.0126-5.7745 0-4.6032-0.19048-4.7619-5.7143-4.7619-4.7619 0-5.7143-0.47619-5.7143-2.8571 0-2.381 0.95238-2.8571 5.7143-2.8571 5.7143 0 5.7143 0 5.7143-5.7143 0-5.3968 0.23809-5.7143 4.2857-5.7143s4.2857 0.31746 4.2857 5.7143c0 5.7143 0 5.7143 5.7143 5.7143 4.7619 0 5.7143 0.47619 5.7143 2.8571 0 2.3737-0.95238 2.8571-5.628 2.8571-5.4723 0-5.6403 0.14823-6.0714 5.3571-0.34131 4.1239-1.1147 5.4532-3.3593 5.7745-1.6038 0.22957-3.3716-0.03829-3.9286-0.59524z"/>
   <path id="path5206" d="m50.722 64.789c-10.314-2.458-19.846-10.595-21.548-18.395-0.458-2.1-1.107-4.691-1.442-5.757-1.213-3.863 2.54-13.345 7.418-18.745 11.507-12.737 30.691-13.145 42.923-0.913 9.9812 9.9812 10.984 22.225 2.709 33.074-6.3846 8.3706-19.831 13.173-30.06 10.736zm19.286-7.0735c11.063-5.6009 14.985-20.08 8.2028-30.286-3.8821-5.8416-14.038-11.283-21.06-11.283-7.0217 0-17.178 5.441-21.06 11.283-5.9606 8.9693-3.6038 22.345 5.0191 28.485 8.6973 6.193 18.96 6.8326 28.898 1.801z"/>
  </g>
 </g>
</svg>
