<?xml version="1.0" encoding="UTF-8" standalone="no"?>
<!-- Created with Inkscape (http://www.inkscape.org/) -->

<svg
   xmlns:dc="http://purl.org/dc/elements/1.1/"
   xmlns:cc="http://creativecommons.org/ns#"
   xmlns:rdf="http://www.w3.org/1999/02/22-rdf-syntax-ns#"
   xmlns:svg="http://www.w3.org/2000/svg"
   xmlns="http://www.w3.org/2000/svg"
   xmlns:sodipodi="http://sodipodi.sourceforge.net/DTD/sodipodi-0.dtd"
   xmlns:inkscape="http://www.inkscape.org/namespaces/inkscape"
   id="svg2"
   height="3.1825593mm"
   width="3.515178mm"
   version="1.1"
   viewBox="0 0 12.455233 11.276733"
   inkscape:version="0.91 r13725"
   sodipodi:docname="ordering.svg">
  <defs
     id="defs4611" />
  <sodipodi:namedview
     pagecolor="#ffffff"
     bordercolor="#666666"
     borderopacity="1"
     objecttolerance="10"
     gridtolerance="10"
     guidetolerance="10"
     inkscape:pageopacity="0"
     inkscape:pageshadow="2"
     inkscape:window-width="1366"
     inkscape:window-height="746"
     id="namedview4609"
     showgrid="false"
     showguides="true"
     inkscape:guide-bbox="true"
     inkscape:zoom="1.7244315"
     inkscape:cx="-105.4936"
     inkscape:cy="-38.848406"
     inkscape:window-x="0"
     inkscape:window-y="0"
     inkscape:window-maximized="1"
     inkscape:current-layer="layer1"
     fit-margin-top="0"
     fit-margin-left="0"
     fit-margin-right="0"
     fit-margin-bottom="0">
    <sodipodi:guide
       position="-36.897923,107.67159"
       orientation="1,0"
       id="guide5153" />
  </sodipodi:namedview>
  <metadata
     id="metadata7">
    <rdf:RDF>
      <cc:Work
         rdf:about="">
        <dc:format>image/svg+xml</dc:format>
        <dc:type
           rdf:resource="http://purl.org/dc/dcmitype/StillImage" />
        <dc:title />
      </cc:Work>
    </rdf:RDF>
  </metadata>
  <g
     id="layer1"
     transform="translate(-3.0547599,-93.897471)"
     style="fill:#69b543">
    <g
       id="ledger"
       transform="matrix(0.19988,0,0,0.19881,-3.5144,21.325)">
      <path
         id="path4157"
         d="m 44.05,421.05 c -2.6373,-1.0685 -4.3592,-3.9109 -4.3592,-7.196 0,-1.8528 -0.65728,-2.5228 -2.9029,-2.9591 -3.3553,-0.65191 -4.6135,-2.9272 -3.1188,-5.6402 1.3421,-2.4361 2.9913,-2.4328 2.9913,0.006 0,1.3404 0.81545,1.9886 2.7779,2.2079 2.2158,0.24766 2.7281,0.76364 2.5316,2.5497 -0.21494,1.9538 0.0103,2.1058 1.7678,1.1921 3.0848,-1.6038 2.5467,-4.8784 -1.0164,-6.185 -2.3193,-0.85043 -3.0305,-1.7228 -3.0305,-3.7173 0,-2.0947 -0.57876,-2.7185 -2.9492,-3.1791 -3.3406,-0.64905 -4.9674,-3.8787 -3.0715,-6.0979 1.6938,-1.9826 2.9902,-1.7778 2.9902,0.47256 0,1.3404 0.81545,1.9886 2.7779,2.2079 2.2158,0.24766 2.7281,0.76364 2.5316,2.5497 -0.21494,1.9538 0.0103,2.1058 1.7678,1.1921 3.5408,-1.8409 1.9098,-6.8659 -2.2285,-6.8659 -1.3359,0 -1.8183,-0.76036 -1.8183,-2.866 0,-2.3767 -0.50948,-2.9746 -2.9847,-3.5027 -3.3546,-0.71573 -4.9067,-3.755 -3.036,-5.9447 1.7101,-2.0016 2.9902,-1.7714 2.9902,0.53774 0,1.5428 0.67343,1.9626 3.1483,1.9626 2.6806,0 3.0675,0.30001 2.6046,2.0197 -0.40541,1.506 -0.11716,1.9399 1.1333,1.706 3.7531,-0.70216 2.0003,-6.6696 -1.959,-6.6696 -1.5934,0 -1.8966,-0.75714 -1.8966,-4.7354 0,-3.6811 0.52054,-5.2105 2.338,-6.8691 2.2355,-2.0402 3.2015,-2.1337 22.047,-2.1337 26.384,0 24.102,-2.6667 24.102,28.167 0,21.789 -0.14987,23.805 -1.9291,25.941 -1.8912,2.2712 -2.3025,2.3208 -20.961,2.5301 -10.467,0.11739 -20.025,-0.18889 -21.238,-0.68062 z m 23.577,-12.574 c 0.25997,-0.96575 1.4303,-2.1801 2.6007,-2.6986 5.9686,-2.6439 4.7542,-8.8354 -2.2241,-11.34 -6.1364,-2.202 -6.2645,-3.6537 -0.35476,-4.021 3.6692,-0.22803 4.9359,-0.72084 5.1897,-2.0189 0.23076,-1.1804 -0.3079,-1.7173 -1.7231,-1.7173 -1.1324,0 -2.5454,-0.88317 -3.1401,-1.9626 -1.4018,-2.5445 -5.0508,-2.6214 -5.0508,-0.10638 0,1.1558 -0.94192,2.0859 -2.4962,2.4648 -6.3625,1.5513 -5.4009,8.5099 1.4516,10.504 8.0013,2.3288 7.3091,5.612 -0.95611,4.5351 -2.8969,-0.37745 -4.0756,-0.12947 -4.5008,0.94692 -0.87436,2.2134 0.24712,3.2438 3.5307,3.2438 2.2974,0 2.9708,0.44489 2.9708,1.9626 0,2.5273 4.0301,2.7044 4.7024,0.20669 z m -4.4656,-37.292 c 11.883,-0.19196 18.629,0.0821 20.037,0.8141 3.0926,1.6079 3.868,0.11183 1.08,-2.0839 -2.148,-1.6917 -4.1564,-1.8781 -20.231,-1.8781 -14.517,0 -18.265,0.28495 -20.091,1.5276 -2.7009,1.8378 -3.0732,3.9822 -0.4773,2.7493 0.97227,-0.46178 9.8293,-0.96982 19.682,-1.129 z"
         inkscape:connector-curvature="0" />
      <path
         id="path4159"
         d="m 89.189,385.23 c 0,-7.1198 1.3659,-8.9075 4.2042,-5.5025 2.2704,2.7238 2.3883,6.7238 0.2842,9.6421 -2.9912,4.1486 -4.4884,2.7678 -4.4884,-4.1396 z"
         inkscape:connector-curvature="0" />
      <path
         id="path4161"
         d="m 90.199,397.56 c 0,-2.9855 0.43753,-3.9219 2.0203,-4.324 1.618,-0.41103 2.0203,-0.0301 2.0203,1.9127 0,2.837 -1.668,6.2221 -3.066,6.2221 -0.53604,0 -0.97461,-1.7148 -0.97461,-3.8107 z"
         inkscape:connector-curvature="0" />
      <path
         id="path4163"
         d="m 90.199,408.35 c 0,-2.9855 0.43753,-3.9219 2.0203,-4.324 1.618,-0.41102 2.0203,-0.0301 2.0203,1.9127 0,2.837 -1.668,6.2221 -3.066,6.2221 -0.53604,0 -0.97461,-1.7148 -0.97461,-3.8108 z"
         inkscape:connector-curvature="0" />
    </g>
  </g>
</svg>
