<?xml version="1.0" encoding="UTF-8" standalone="no"?>
<!-- Created with Inkscape (http://www.inkscape.org/) -->

<svg
   xmlns:dc="http://purl.org/dc/elements/1.1/"
   xmlns:cc="http://creativecommons.org/ns#"
   xmlns:rdf="http://www.w3.org/1999/02/22-rdf-syntax-ns#"
   xmlns:svg="http://www.w3.org/2000/svg"
   xmlns="http://www.w3.org/2000/svg"
   xmlns:sodipodi="http://sodipodi.sourceforge.net/DTD/sodipodi-0.dtd"
   xmlns:inkscape="http://www.inkscape.org/namespaces/inkscape"
   id="svg2"
   height="2.7618189mm"
   width="3.306659mm"
   version="1.1"
   viewBox="0 0 11.716394 9.7859277"
   inkscape:version="0.91 r13725"
   sodipodi:docname="pictures.svg">
  <defs
     id="defs4611" />
  <sodipodi:namedview
     pagecolor="#ffffff"
     bordercolor="#666666"
     borderopacity="1"
     objecttolerance="10"
     gridtolerance="10"
     guidetolerance="10"
     inkscape:pageopacity="0"
     inkscape:pageshadow="2"
     inkscape:window-width="1366"
     inkscape:window-height="746"
     id="namedview4609"
     showgrid="false"
     showguides="true"
     inkscape:guide-bbox="true"
     inkscape:zoom="1.7244315"
     inkscape:cx="2.943552"
     inkscape:cy="42.658704"
     inkscape:window-x="0"
     inkscape:window-y="0"
     inkscape:window-maximized="1"
     inkscape:current-layer="layer1"
     fit-margin-top="0"
     fit-margin-left="0"
     fit-margin-right="0"
     fit-margin-bottom="0">
    <sodipodi:guide
       position="-36.834955,70.624081"
       orientation="1,0"
       id="guide5153" />
  </sodipodi:namedview>
  <metadata
     id="metadata7">
    <rdf:RDF>
      <cc:Work
         rdf:about="">
        <dc:format>image/svg+xml</dc:format>
        <dc:type
           rdf:resource="http://purl.org/dc/dcmitype/StillImage" />
        <dc:title></dc:title>
      </cc:Work>
    </rdf:RDF>
  </metadata>
  <g
     id="layer1"
     transform="translate(-2.991789,-58.340773)"
     style="fill:#69b543">
    <g
       id="pictures"
       transform="matrix(0.07511,-4.3749e-4,4.7367e-4,0.069372,3.0467,52.619)">
      <path
         id="path3767"
         d="m 44.888,172.44 0,-34.26 44.776,0 44.776,0 -0.0239,23.496 -0.0239,23.496 -10.577,-14.735 c -5.8176,-8.1042 -11.203,-14.735 -11.968,-14.735 -0.76485,0 -8.5672,9.98 -17.339,22.178 l -15.948,22.178 -5.9978,-4.6551 c -3.2988,-2.5603 -6.5244,-4.6551 -7.168,-4.6551 -0.64358,0 -5.5208,3.5891 -10.838,7.9757 l -9.668,7.9757 0,-34.26 z m 23.375,-4.2535 c 10.006,-7.0153 5.8464,-25.361 -5.2224,-23.03 -8.4683,1.7831 -11.015,12.223 -4.9341,20.227 3.8379,5.0519 6.0702,5.668 10.156,2.8032 z"
         inkscape:connector-curvature="0" />
      <path
         id="path3769"
         d="m 28.692,218.92 0,-4.8052 -6.5035,0.86147 -6.5035,0.86147 -0.71575,-5.3004 c -0.79385,-5.8787 -1.2512,-8.739 -7.5261,-47.07 -8.1972,-50.073 -9.191,-56.535 -8.7679,-57.012 0.31841,-0.35887 8.0883,-1.9117 26.979,-5.3918 6.0148,-1.1081 29.801,-5.6112 52.857,-10.007 23.057,-4.3958 42.026,-7.9121 42.154,-7.8141 0.12797,0.098 1.3673,7.5581 2.7542,16.578 1.3868,9.0199 2.8227,17.478 3.1908,18.796 0.58374,2.0903 2.3669,2.3966 13.954,2.3966 l 13.284,0 0,51.356 0,51.356 -62.578,0 -62.578,0 0,-4.8052 z m 115.44,-46.551 0,-41.769 -53.465,0 -53.465,0 0,41.769 0,41.769 53.465,0 53.465,0 0,-41.769 z m -115.44,-9.5864 0,-41.769 44.351,0 44.351,0 -0.002,-3.0814 c -0.002,-3.448 -3.146,-22.834 -3.8284,-23.603 -0.24086,-0.27146 -21.486,3.508 -47.212,8.3988 -25.726,4.8908 -49.111,9.2388 -51.966,9.6623 -2.8557,0.42349 -5.4679,1.2729 -5.805,1.8876 -0.33706,0.61467 -0.079518,3.7683 0.57234,7.0082 0.65185,3.2398 2.0643,11.437 3.1387,18.216 1.8936,11.948 4.2112,26.103 8.5763,52.383 1.9462,11.717 2.3188,12.668 4.9636,12.668 l 2.8595,0 0,-41.769 z"
         inkscape:connector-curvature="0" />
    </g>
  </g>
</svg>
